<svg width="1024" height="1024" viewBox="0 0 1024 1024" fill="none" xmlns="http://www.w3.org/2000/svg">
  <defs>
    <linearGradient id="bg" x1="186" y1="126" x2="826" y2="890" gradientUnits="userSpaceOnUse">
      <stop stop-color="#525E6E"/>
      <stop offset="0.52" stop-color="#46515F"/>
      <stop offset="1" stop-color="#39424F"/>
    </linearGradient>
    <linearGradient id="glass" x1="234" y1="184" x2="770" y2="840" gradientUnits="userSpaceOnUse">
      <stop stop-color="#FFFFFF" stop-opacity="0.18"/>
      <stop offset="1" stop-color="#FFFFFF" stop-opacity="0.04"/>
    </linearGradient>
    <linearGradient id="check" x1="322" y1="520" x2="724" y2="520" gradientUnits="userSpaceOnUse">
      <stop stop-color="#FFFFFF"/>
      <stop offset="1" stop-color="#F3F5F8"/>
    </linearGradient>
    <filter id="shadow" x="84" y="88" width="856" height="856" filterUnits="userSpaceOnUse" color-interpolation-filters="sRGB">
      <feFlood flood-opacity="0" result="BackgroundImageFix"/>
      <feColorMatrix in="SourceAlpha" type="matrix" values="0 0 0 0 0 0 0 0 0 0 0 0 0 0 0 0 0 0 127 0" result="hardAlpha"/>
      <feOffset dy="34"/>
      <feGaussianBlur stdDeviation="42"/>
      <feColorMatrix type="matrix" values="0 0 0 0 0.18 0 0 0 0 0.21 0 0 0 0 0.27 0 0 0 0.2 0"/>
      <feBlend mode="normal" in2="BackgroundImageFix" result="effect1_dropShadow"/>
      <feBlend mode="normal" in="SourceGraphic" in2="effect1_dropShadow" result="shape"/>
    </filter>
    <filter id="checkShadow" x="262" y="370" width="502" height="304" filterUnits="userSpaceOnUse" color-interpolation-filters="sRGB">
      <feFlood flood-opacity="0" result="BackgroundImageFix"/>
      <feColorMatrix in="SourceAlpha" type="matrix" values="0 0 0 0 0 0 0 0 0 0 0 0 0 0 0 0 0 0 127 0" result="hardAlpha"/>
      <feOffset dy="18"/>
      <feGaussianBlur stdDeviation="22"/>
      <feColorMatrix type="matrix" values="0 0 0 0 0.18 0 0 0 0 0.21 0 0 0 0 0.27 0 0 0 0.22 0"/>
      <feBlend mode="normal" in2="BackgroundImageFix" result="effect1_dropShadow"/>
      <feBlend mode="normal" in="SourceGraphic" in2="effect1_dropShadow" result="shape"/>
    </filter>
  </defs>
  <rect width="1024" height="1024" fill="none"/>
  <g filter="url(#shadow)">
    <rect x="160" y="142" width="704" height="704" rx="184" fill="url(#bg)"/>
    <rect x="181" y="163" width="662" height="662" rx="166" stroke="white" stroke-opacity="0.16" stroke-width="42"/>
    <path d="M250 300C308 202 458 184 606 218C745 250 812 360 794 492C776 632 662 752 492 758C354 762 228 710 206 584C190 490 198 388 250 300Z" fill="url(#glass)" opacity="0.68"/>
    <path d="M234 238C288 190 364 170 452 170H626C724 170 812 250 824 348C760 284 676 250 566 244C446 238 344 260 234 342V238Z" fill="white" opacity="0.12"/>
  </g>
  <g filter="url(#checkShadow)">
    <path d="M336 520L462 646L724 386" stroke="url(#check)" stroke-width="82" stroke-linecap="round" stroke-linejoin="round"/>
    <path d="M336 520L462 646L724 386" stroke="white" stroke-opacity="0.22" stroke-width="28" stroke-linecap="round" stroke-linejoin="round"/>
  </g>
</svg>
